<?xml version="1.0" encoding="UTF-8" standalone="no"?><!-- Generator: Gravit.io --><svg xmlns="http://www.w3.org/2000/svg" xmlns:xlink="http://www.w3.org/1999/xlink" style="isolation:isolate" viewBox="0 0 256 64" width="256pt" height="64pt"><defs><clipPath id="_clipPath_zS71L6x7qRSpP6i9g78rrpCI53CYVdKb"><rect width="256" height="64"/></clipPath></defs><g clip-path="url(#_clipPath_zS71L6x7qRSpP6i9g78rrpCI53CYVdKb)"><path d=" M 37.169 43.987 L 29.549 43.987 L 29.549 31.35 L 29.549 31.35 Q 29.549 30.374 29.41 29.468 L 29.41 29.468 L 29.41 29.468 Q 29.27 28.562 28.899 27.911 L 28.899 27.911 L 28.899 27.911 Q 28.527 27.261 27.9 26.866 L 27.9 26.866 L 27.9 26.866 Q 27.273 26.471 26.25 26.471 L 26.25 26.471 L 26.25 26.471 Q 25.275 26.471 24.555 26.889 L 24.555 26.889 L 24.555 26.889 Q 23.834 27.307 23.347 28.004 L 23.347 28.004 L 23.347 28.004 Q 22.859 28.701 22.626 29.607 L 22.626 29.607 L 22.626 29.607 Q 22.394 30.513 22.394 31.489 L 22.394 31.489 L 22.394 43.987 L 14.775 43.987 L 14.775 30.792 L 14.775 30.792 Q 14.775 28.794 13.985 27.633 L 13.985 27.633 L 13.985 27.633 Q 13.195 26.471 11.476 26.471 L 11.476 26.471 L 11.476 26.471 Q 9.664 26.471 8.665 27.911 L 8.665 27.911 L 8.665 27.911 Q 7.666 29.352 7.666 31.442 L 7.666 31.442 L 7.666 43.987 L 0 43.987 L 0 20.849 L 7.387 20.849 L 7.387 24.055 L 7.48 24.055 L 7.48 24.055 Q 7.898 23.312 8.526 22.615 L 8.526 22.615 L 8.526 22.615 Q 9.153 21.918 10.036 21.384 L 10.036 21.384 L 10.036 21.384 Q 10.918 20.849 12.01 20.524 L 12.01 20.524 L 12.01 20.524 Q 13.102 20.199 14.403 20.199 L 14.403 20.199 L 14.403 20.199 Q 16.912 20.199 18.654 21.221 L 18.654 21.221 L 18.654 21.221 Q 20.396 22.243 21.372 24.148 L 21.372 24.148 L 21.372 24.148 Q 22.534 22.336 24.346 21.268 L 24.346 21.268 L 24.346 21.268 Q 26.158 20.199 28.759 20.199 L 28.759 20.199 L 28.759 20.199 Q 31.129 20.199 32.732 21.058 L 32.732 21.058 L 32.732 21.058 Q 34.335 21.918 35.31 23.289 L 35.31 23.289 L 35.31 23.289 Q 36.286 24.659 36.727 26.355 L 36.727 26.355 L 36.727 26.355 Q 37.169 28.051 37.169 29.677 L 37.169 29.677 L 37.169 43.987 Z  M 65.51 43.987 L 58.169 43.987 L 58.169 40.781 L 58.076 40.781 L 58.076 40.781 Q 57.658 41.571 56.984 42.268 L 56.984 42.268 L 56.984 42.268 Q 56.311 42.965 55.405 43.476 L 55.405 43.476 L 55.405 43.476 Q 54.499 43.987 53.407 44.312 L 53.407 44.312 L 53.407 44.312 Q 52.315 44.637 51.107 44.637 L 51.107 44.637 L 51.107 44.637 Q 48.784 44.637 47.181 43.801 L 47.181 43.801 L 47.181 43.801 Q 45.578 42.965 44.579 41.641 L 44.579 41.641 L 44.579 41.641 Q 43.58 40.317 43.139 38.621 L 43.139 38.621 L 43.139 38.621 Q 42.698 36.925 42.698 35.159 L 42.698 35.159 L 42.698 20.849 L 50.364 20.849 L 50.364 33.394 L 50.364 33.394 Q 50.364 34.37 50.503 35.252 L 50.503 35.252 L 50.503 35.252 Q 50.642 36.135 51.037 36.832 L 51.037 36.832 L 51.037 36.832 Q 51.432 37.529 52.083 37.924 L 52.083 37.924 L 52.083 37.924 Q 52.733 38.319 53.802 38.319 L 53.802 38.319 L 53.802 38.319 Q 55.8 38.319 56.845 36.832 L 56.845 36.832 L 56.845 36.832 Q 57.89 35.345 57.89 33.347 L 57.89 33.347 L 57.89 20.849 L 65.51 20.849 L 65.51 43.987 Z  M 95.988 20.849 L 95.988 41.803 L 95.988 41.803 Q 95.988 45.195 95.013 47.704 L 95.013 47.704 L 95.013 47.704 Q 94.037 50.213 92.272 51.862 L 92.272 51.862 L 92.272 51.862 Q 90.506 53.511 87.974 54.325 L 87.974 54.325 L 87.974 54.325 Q 85.442 55.138 82.375 55.138 L 82.375 55.138 L 82.375 55.138 Q 79.309 55.138 76.08 54.208 L 76.08 54.208 L 76.08 54.208 Q 72.851 53.279 70.481 51.514 L 70.481 51.514 L 74.291 46.078 L 74.291 46.078 Q 75.964 47.564 77.985 48.285 L 77.985 48.285 L 77.985 48.285 Q 80.006 49.005 81.957 49.005 L 81.957 49.005 L 81.957 49.005 Q 85.302 49.005 86.905 47.239 L 86.905 47.239 L 86.905 47.239 Q 88.508 45.474 88.508 42.547 L 88.508 42.547 L 88.508 41.153 L 88.369 41.153 L 88.369 41.153 Q 87.3 42.547 85.488 43.383 L 85.488 43.383 L 85.488 43.383 Q 83.676 44.219 81.353 44.219 L 81.353 44.219 L 81.353 44.219 Q 78.705 44.219 76.661 43.267 L 76.661 43.267 L 76.661 43.267 Q 74.616 42.314 73.199 40.688 L 73.199 40.688 L 73.199 40.688 Q 71.782 39.062 71.039 36.902 L 71.039 36.902 L 71.039 36.902 Q 70.295 34.741 70.295 32.325 L 70.295 32.325 L 70.295 32.325 Q 70.295 29.909 71.039 27.726 L 71.039 27.726 L 71.039 27.726 Q 71.782 25.542 73.199 23.869 L 73.199 23.869 L 73.199 23.869 Q 74.616 22.197 76.661 21.198 L 76.661 21.198 L 76.661 21.198 Q 78.705 20.199 81.307 20.199 L 81.307 20.199 L 81.307 20.199 Q 83.49 20.199 85.488 21.082 L 85.488 21.082 L 85.488 21.082 Q 87.486 21.964 88.694 23.823 L 88.694 23.823 L 88.787 23.823 L 88.787 20.849 L 95.988 20.849 Z  M 88.74 32.279 L 88.74 32.279 L 88.74 32.279 Q 88.74 31.117 88.346 30.049 L 88.346 30.049 L 88.346 30.049 Q 87.951 28.98 87.207 28.167 L 87.207 28.167 L 87.207 28.167 Q 86.464 27.354 85.442 26.889 L 85.442 26.889 L 85.442 26.889 Q 84.42 26.425 83.119 26.425 L 83.119 26.425 L 83.119 26.425 Q 81.818 26.425 80.819 26.889 L 80.819 26.889 L 80.819 26.889 Q 79.82 27.354 79.123 28.144 L 79.123 28.144 L 79.123 28.144 Q 78.426 28.934 78.054 30.002 L 78.054 30.002 L 78.054 30.002 Q 77.683 31.071 77.683 32.279 L 77.683 32.279 L 77.683 32.279 Q 77.683 33.44 78.054 34.509 L 78.054 34.509 L 78.054 34.509 Q 78.426 35.577 79.123 36.391 L 79.123 36.391 L 79.123 36.391 Q 79.82 37.204 80.819 37.691 L 80.819 37.691 L 80.819 37.691 Q 81.818 38.179 83.119 38.179 L 83.119 38.179 L 83.119 38.179 Q 84.42 38.179 85.465 37.691 L 85.465 37.691 L 85.465 37.691 Q 86.51 37.204 87.23 36.414 L 87.23 36.414 L 87.23 36.414 Q 87.951 35.624 88.346 34.555 L 88.346 34.555 L 88.346 34.555 Q 88.74 33.487 88.74 32.279 Z  M 110.298 13.462 L 110.298 13.462 L 110.298 13.462 Q 110.298 14.345 109.95 15.111 L 109.95 15.111 L 109.95 15.111 Q 109.601 15.878 109.021 16.436 L 109.021 16.436 L 109.021 16.436 Q 108.44 16.993 107.627 17.318 L 107.627 17.318 L 107.627 17.318 Q 106.814 17.644 105.931 17.644 L 105.931 17.644 L 105.931 17.644 Q 104.073 17.644 102.818 16.412 L 102.818 16.412 L 102.818 16.412 Q 101.564 15.181 101.564 13.462 L 101.564 13.462 L 101.564 13.462 Q 101.564 12.626 101.889 11.859 L 101.889 11.859 L 101.889 11.859 Q 102.214 11.093 102.818 10.535 L 102.818 10.535 L 102.818 10.535 Q 103.422 9.977 104.212 9.629 L 104.212 9.629 L 104.212 9.629 Q 105.002 9.281 105.931 9.281 L 105.931 9.281 L 105.931 9.281 Q 106.814 9.281 107.627 9.606 L 107.627 9.606 L 107.627 9.606 Q 108.44 9.931 109.021 10.489 L 109.021 10.489 L 109.021 10.489 Q 109.601 11.046 109.95 11.813 L 109.95 11.813 L 109.95 11.813 Q 110.298 12.579 110.298 13.462 Z  M 109.741 43.987 L 102.121 43.987 L 102.121 20.849 L 109.741 20.849 L 109.741 43.987 Z  M 133.575 23.358 L 129.394 27.679 L 129.394 27.679 Q 128.465 26.796 127.21 26.192 L 127.21 26.192 L 127.21 26.192 Q 125.956 25.588 124.562 25.588 L 124.562 25.588 L 124.562 25.588 Q 123.493 25.588 122.587 26.007 L 122.587 26.007 L 122.587 26.007 Q 121.681 26.425 121.681 27.447 L 121.681 27.447 L 121.681 27.447 Q 121.681 28.423 122.68 28.841 L 122.68 28.841 L 122.68 28.841 Q 123.679 29.259 125.909 29.77 L 125.909 29.77 L 125.909 29.77 Q 127.21 30.049 128.534 30.56 L 128.534 30.56 L 128.534 30.56 Q 129.858 31.071 130.927 31.907 L 130.927 31.907 L 130.927 31.907 Q 131.996 32.743 132.646 33.951 L 132.646 33.951 L 132.646 33.951 Q 133.297 35.159 133.297 36.832 L 133.297 36.832 L 133.297 36.832 Q 133.297 39.016 132.414 40.526 L 132.414 40.526 L 132.414 40.526 Q 131.531 42.036 130.114 42.965 L 130.114 42.965 L 130.114 42.965 Q 128.697 43.894 126.931 44.312 L 126.931 44.312 L 126.931 44.312 Q 125.166 44.73 123.4 44.73 L 123.4 44.73 L 123.4 44.73 Q 120.566 44.73 117.848 43.824 L 117.848 43.824 L 117.848 43.824 Q 115.13 42.918 113.318 41.153 L 113.318 41.153 L 117.593 36.646 L 117.593 36.646 Q 118.615 37.761 120.102 38.505 L 120.102 38.505 L 120.102 38.505 Q 121.588 39.248 123.261 39.248 L 123.261 39.248 L 123.261 39.248 Q 124.19 39.248 125.096 38.807 L 125.096 38.807 L 125.096 38.807 Q 126.002 38.365 126.002 37.25 L 126.002 37.25 L 126.002 37.25 Q 126.002 36.181 124.887 35.67 L 124.887 35.67 L 124.887 35.67 Q 123.772 35.159 121.403 34.602 L 121.403 34.602 L 121.403 34.602 Q 120.195 34.323 118.987 33.858 L 118.987 33.858 L 118.987 33.858 Q 117.779 33.394 116.826 32.604 L 116.826 32.604 L 116.826 32.604 Q 115.874 31.814 115.27 30.653 L 115.27 30.653 L 115.27 30.653 Q 114.666 29.491 114.666 27.865 L 114.666 27.865 L 114.666 27.865 Q 114.666 25.774 115.548 24.311 L 115.548 24.311 L 115.548 24.311 Q 116.431 22.847 117.825 21.918 L 117.825 21.918 L 117.825 21.918 Q 119.219 20.989 120.915 20.547 L 120.915 20.547 L 120.915 20.547 Q 122.611 20.106 124.283 20.106 L 124.283 20.106 L 124.283 20.106 Q 126.885 20.106 129.371 20.919 L 129.371 20.919 L 129.371 20.919 Q 131.856 21.732 133.575 23.358 L 133.575 23.358 Z  M 160.616 43.987 L 152.95 43.987 L 152.95 31.442 L 152.95 31.442 Q 152.95 30.467 152.81 29.584 L 152.81 29.584 L 152.81 29.584 Q 152.671 28.701 152.276 28.028 L 152.276 28.028 L 152.276 28.028 Q 151.881 27.354 151.23 26.959 L 151.23 26.959 L 151.23 26.959 Q 150.58 26.564 149.558 26.564 L 149.558 26.564 L 149.558 26.564 Q 147.56 26.564 146.491 27.981 L 146.491 27.981 L 146.491 27.981 Q 145.423 29.398 145.423 31.489 L 145.423 31.489 L 145.423 43.987 L 137.803 43.987 L 137.803 8.862 L 145.423 8.862 L 145.423 23.776 L 145.516 23.776 L 145.516 23.776 Q 146.306 22.383 148.025 21.291 L 148.025 21.291 L 148.025 21.291 Q 149.744 20.199 152.16 20.199 L 152.16 20.199 L 152.16 20.199 Q 154.529 20.199 156.132 21.035 L 156.132 21.035 L 156.132 21.035 Q 157.735 21.872 158.734 23.196 L 158.734 23.196 L 158.734 23.196 Q 159.733 24.52 160.174 26.239 L 160.174 26.239 L 160.174 26.239 Q 160.616 27.958 160.616 29.677 L 160.616 29.677 L 160.616 43.987 Z  M 188.957 43.987 L 181.616 43.987 L 181.616 40.781 L 181.523 40.781 L 181.523 40.781 Q 181.105 41.571 180.431 42.268 L 180.431 42.268 L 180.431 42.268 Q 179.758 42.965 178.852 43.476 L 178.852 43.476 L 178.852 43.476 Q 177.946 43.987 176.854 44.312 L 176.854 44.312 L 176.854 44.312 Q 175.762 44.637 174.554 44.637 L 174.554 44.637 L 174.554 44.637 Q 172.231 44.637 170.628 43.801 L 170.628 43.801 L 170.628 43.801 Q 169.025 42.965 168.026 41.641 L 168.026 41.641 L 168.026 41.641 Q 167.027 40.317 166.586 38.621 L 166.586 38.621 L 166.586 38.621 Q 166.144 36.925 166.144 35.159 L 166.144 35.159 L 166.144 20.849 L 173.811 20.849 L 173.811 33.394 L 173.811 33.394 Q 173.811 34.37 173.95 35.252 L 173.95 35.252 L 173.95 35.252 Q 174.089 36.135 174.484 36.832 L 174.484 36.832 L 174.484 36.832 Q 174.879 37.529 175.53 37.924 L 175.53 37.924 L 175.53 37.924 Q 176.18 38.319 177.249 38.319 L 177.249 38.319 L 177.249 38.319 Q 179.246 38.319 180.292 36.832 L 180.292 36.832 L 180.292 36.832 Q 181.337 35.345 181.337 33.347 L 181.337 33.347 L 181.337 20.849 L 188.957 20.849 L 188.957 43.987 Z  M 232.398 20.849 L 224.36 43.987 L 216.694 43.987 L 212.141 29.584 L 212.048 29.584 L 207.588 43.987 L 199.922 43.987 L 191.93 20.849 L 200.154 20.849 L 204.15 35.485 L 204.289 35.485 L 208.424 20.849 L 216.09 20.849 L 220.364 35.485 L 220.457 35.485 L 224.499 20.849 L 232.398 20.849 Z  M 249.031 34.695 L 249.031 33.905 L 248.055 33.905 L 248.055 33.905 Q 246.801 33.905 245.523 34.021 L 245.523 34.021 L 245.523 34.021 Q 244.245 34.137 243.246 34.462 L 243.246 34.462 L 243.246 34.462 Q 242.248 34.788 241.597 35.415 L 241.597 35.415 L 241.597 35.415 Q 240.947 36.042 240.947 37.064 L 240.947 37.064 L 240.947 37.064 Q 240.947 37.715 241.249 38.179 L 241.249 38.179 L 241.249 38.179 Q 241.551 38.644 242.015 38.923 L 242.015 38.923 L 242.015 38.923 Q 242.48 39.201 243.084 39.318 L 243.084 39.318 L 243.084 39.318 Q 243.688 39.434 244.245 39.434 L 244.245 39.434 L 244.245 39.434 Q 246.568 39.434 247.8 38.156 L 247.8 38.156 L 247.8 38.156 Q 249.031 36.878 249.031 34.695 L 249.031 34.695 Z  M 238.902 28.144 L 235.046 24.009 L 235.046 24.009 Q 237.09 22.057 239.808 21.082 L 239.808 21.082 L 239.808 21.082 Q 242.526 20.106 245.36 20.106 L 245.36 20.106 L 245.36 20.106 Q 248.287 20.106 250.309 20.826 L 250.309 20.826 L 250.309 20.826 Q 252.33 21.546 253.584 23.056 L 253.584 23.056 L 253.584 23.056 Q 254.838 24.566 255.419 26.866 L 255.419 26.866 L 255.419 26.866 Q 256 29.166 256 32.325 L 256 32.325 L 256 43.987 L 249.031 43.987 L 249.031 41.525 L 248.891 41.525 L 248.891 41.525 Q 248.009 42.965 246.22 43.755 L 246.22 43.755 L 246.22 43.755 Q 244.431 44.544 242.34 44.544 L 242.34 44.544 L 242.34 44.544 Q 240.947 44.544 239.46 44.173 L 239.46 44.173 L 239.46 44.173 Q 237.973 43.801 236.742 42.965 L 236.742 42.965 L 236.742 42.965 Q 235.511 42.128 234.721 40.735 L 234.721 40.735 L 234.721 40.735 Q 233.931 39.341 233.931 37.297 L 233.931 37.297 L 233.931 37.297 Q 233.931 34.788 235.302 33.254 L 235.302 33.254 L 235.302 33.254 Q 236.672 31.721 238.833 30.885 L 238.833 30.885 L 238.833 30.885 Q 240.993 30.049 243.641 29.77 L 243.641 29.77 L 243.641 29.77 Q 246.29 29.491 248.799 29.491 L 248.799 29.491 L 248.799 29.119 L 248.799 29.119 Q 248.799 27.4 247.591 26.587 L 247.591 26.587 L 247.591 26.587 Q 246.383 25.774 244.617 25.774 L 244.617 25.774 L 244.617 25.774 Q 242.991 25.774 241.481 26.471 L 241.481 26.471 L 241.481 26.471 Q 239.971 27.168 238.902 28.144 L 238.902 28.144 Z " fill="rgb(255,255,255)"/></g></svg>